<svg width="1030.57471" height="696.9775" xmlns="http://www.w3.org/2000/svg">
 <title>i can fly</title>

 <g>
  <title>background</title>
  <rect fill="none" id="canvas_background" height="402" width="582" y="-1" x="-1"/>
 </g>
 <g>
  <title>Layer 1</title>
  <path id="svg_1" fill="#f2f2f2" d="m746.975209,162.466627a60.64529,60.64529 0 0 1 60.56127,-57.47579c1.84313,0 3.66317,0.09612 5.46442,0.25711a80.5744,80.5744 0 0 1 139.28388,-0.06586c1.51962,-0.11413 3.04946,-0.19125 4.59825,-0.19125a60.6453,60.6453 0 0 1 60.56127,57.47579"/>
  <path id="svg_2" stroke-miterlimit="10" stroke="#3f3d56" fill="none" d="m759.606289,157.801537a60.64529,60.64529 0 0 1 60.56127,-57.47579c1.84313,0 3.66317,0.09612 5.46442,0.25711a80.5744,80.5744 0 0 1 139.28388,-0.06586c1.51962,-0.11413 3.04946,-0.19125 4.59825,-0.19125a60.6453,60.6453 0 0 1 60.56127,57.47579"/>
  <path id="svg_3" fill="#f2f2f2" d="m71.025289,504.226997c5.45455,-105.97956 93.1087,-190.23237 200.44463,-190.23237c6.10037,0 12.12431,0.31815 18.08607,0.851a266.68374,266.68374 0 0 1 460.99935,-0.218c5.0296,-0.37777 10.093,-0.633 15.21919,-0.633c107.33593,0 194.99008,84.25281 200.44463,190.23237"/>
  <path id="svg_4" stroke-miterlimit="10" stroke="#3f3d56" fill="none" d="m112.831419,488.786557c5.45455,-105.97956 93.1087,-190.23237 200.44464,-190.23237c6.10036,0 12.1243,0.31815 18.08606,0.851a266.68374,266.68374 0 0 1 460.99935,-0.21795c5.0296,-0.37777 10.093,-0.633 15.21919,-0.633c107.33593,0 194.99009,84.25281 200.44463,190.23237"/>
  <path id="svg_5" fill="#f2f2f2" d="m-0.000001,138.466627a82.05654,82.05654 0 0 1 81.94283,-77.768c2.49387,0 4.95648,0.13007 7.39368,0.34789a109.02172,109.02172 0 0 1 188.459,-0.0891c2.05613,-0.15444 4.12609,-0.25879 6.22169,-0.25879a82.05654,82.05654 0 0 1 81.94283,77.768"/>
  <path id="svg_6" stroke-miterlimit="10" stroke="#3f3d56" fill="none" d="m17.090569,132.154497a82.05654,82.05654 0 0 1 81.94283,-77.768c2.49386,0 4.95648,0.13007 7.39368,0.34788a109.02173,109.02173 0 0 1 188.459,-0.0891c2.05613,-0.15443 4.12609,-0.25878 6.22169,-0.25878a82.05654,82.05654 0 0 1 81.94283,77.768"/>
  <path id="svg_7" fill="#fbbebe" d="m411.025289,235.659807s14,34 -7,42c0,0 30,13 37,10s12,-10 12,-12s-7,-3 -7,-3s-13,1 -3,-32l-32,-5z"/>
  <circle id="svg_8" fill="#fbbebe" r="25" cy="228.65981" cx="427.02529"/>
  <ellipse id="svg_9" fill="#3f3d56" ry="31" rx="22" cy="223.15981" cx="410.52529"/>
  <ellipse stroke="null" id="svg_10" fill="#3f3d56" ry="31" rx="22" cy="213.15981" cx="394.52529"/>
  <ellipse id="svg_11" fill="#3f3d56" ry="15.5" rx="11" cy="190.65981" cx="372.52529"/>
  <path id="svg_12" fill="#fbbebe" d="m452.025289,271.659807s6,-12 28,-18s65,-78 65,-78s-2,-43 8,-30s2,39 2,39l-25.80418,44.57085a97.08358,97.08358 0 0 1 -17.8724,22.42615c-15.95376,14.84942 -44.459,41.003 -47.32342,41.003c-4,0 -12,-21 -12,-21z"/>
  <path id="svg_13" fill="#fbbebe" d="m417.025289,442.659807s7,85 5,93s-8,24 2,71s-2,44 -2,44l32,14s-11,-54 -9,-69s1,-46 7,-67s7,-80 7,-80l-42,-6z"/>
  <path id="svg_14" opacity="0.1" d="m417.025289,442.659807s7,85 5,93s-8,24 2,71s-2,44 -2,44l32,14s-11,-54 -9,-69s1,-46 7,-67s7,-80 7,-80l-42,-6z"/>
  <path id="svg_15" fill="#3f3d56" d="m452.780299,653.840847c-2.47934,1.72219 -8.84818,3.47 -20.755,-9.181c0,0 -7,-10 -13,0s-2,11 2,16c3.86133,4.82665 34.74673,37.60925 47.6783,36.27827a6.16621,6.16621 0 0 0 1.3217,-0.27827c12,-4 -5,-17 -5,-17s-11.14536,-17.14671 -11.20891,-25.24382a0.66759,0.66759 0 0 0 -1.03609,-0.57518z"/>
  <path id="svg_16" fill="#fbbebe" d="m393.025289,432.659807s-17,39 -24,59c-3.675,10.5 -14.79187,13.83375 -24.52373,14.63175a83.87385,83.87385 0 0 0 -34.26925,10.32726c-13.99626,7.85614 -33.09469,16.77132 -45.207,15.041c-21,-3 -4,30 -4,30s31,-19 60,-21s60,-5 74,-23s48,-75 48,-75l-50.00002,-10.00001z"/>
  <path id="svg_17" fill="#3f3d56" d="m262.025289,556.659807s-10,-7 -2,-14s11,-13 11,-13s-14,-15 -19,-7s-27,44 -22,55s10,14 16,2s21.13216,-21.44741 21.13216,-21.44741l-5.13216,-1.55259z"/>
  <path id="svg_18" fill="#56af84" d="m448.025289,276.659807s-3.32428,6.64857 -34.217,0.24731a18.97584,18.97584 0 0 0 -20.908,9.75269c-3.875,7.75 -4.375,19 9.125,33c0,0 24,27 12,38s57,-7 57,-7s-9,-6 -1,-24c6.28572,-14.14286 5.78061,-22.11225 0.91,-28.27369a30.88363,30.88363 0 0 1 -5.83871,-13.04832c-1.36549,-6.69413 -4.73864,-15.08281 -13.07128,-15.678c0,0 -8.75922,-0.513 -9.37961,1.74348s7.3796,4.25653 5.3796,5.25653z"/>
  <path id="svg_19" fill="#fbbebe" d="m411.463519,297.873177c-0.20653,-1.4101 -0.45929,-2.81119 -0.63632,-4.2253c-0.60438,-4.82791 -2.89964,-16.52583 -10.84061,-14.513c-9.9613,2.52494 -20.9613,27.52494 -20.9613,27.52494s-9,28 -22,35s-49,43 -49,43s-30,8 -19,16s25,-5 25,-5l35.3685,-21.22107a101.249,101.249 0 0 0 31.196,-29.33114c7.36824,-10.67142 16.59508,-23.00458 22.442,-27.07969a19.27945,19.27945 0 0 0 7.55716,-9.8792a22.9342,22.9342 0 0 0 0.87457,-10.27554z"/>
  <path id="svg_20" fill="#56af84" d="m420.025289,355.659807s-46,-6 -72,25s-45,22 -43,27s98,64 154,57c34.0927,-4.26159 52.24808,-8.15254 61.23541,-10.54465a17.445,17.445 0 0 0 9.64045,-6.46652a17.70419,17.70419 0 0 1 4.8741,-4.4263a8.65554,8.65554 0 0 0 2.32826,-12.21235c-15.85981,-22.94586 -58.91668,-83.72865 -71.07822,-85.35018c-15,-2 -46,10 -46,10z"/>
  <ellipse id="svg_21" fill="#3f3d56" ry="11.5" rx="16" cy="201.65981" cx="427.52529"/>
  <path id="svg_22" fill="#a0616a" d="m746.842119,99.188277a113.38769,113.38769 0 0 1 4.17018,-15.5535c1.80736,-4.94254 4.09325,-9.15909 6.64158,-9.15909c6.17815,0 -21.62352,-26.25714 -21.62352,-26.25714s-1.74515,3.24349 -4.63361,7.61456a107.69871,107.69871 0 0 1 -6.9195,9.42164a51.65324,51.65324 0 0 1 -11.615,10.76547c-12.35625,7.72269 33.97987,23.16806 33.97987,23.16806z"/>
  <path id="svg_23" fill="#a0616a" d="m828.638979,201.572447s61.93712,39.13288 42.853,45.5631s-50.70024,-39.54394 -50.70024,-39.54394l7.84724,-6.01916z"/>
  <path id="svg_24" fill="#56af84" d="m745.562489,112.685347s29.66413,21.631 38.33346,38.08562s53.7408,53.01994 53.7408,53.01994s-9.30555,18.38594 -13.80443,17.2767s-97.25063,-70.11075 -107.00863,-75.69821s5.11449,-40.09957 28.7388,-32.68405z"/>
  <path id="svg_26" fill="#a0616a" d="m833.336209,151.702547s69.50418,23.16806 52.51427,33.97982s-58.69242,-26.25713 -58.69242,-26.25713l6.17815,-7.72269z"/>
  <path id="svg_27" fill="#55536e" d="m788.544629,468.332687s29.34621,-12.35629 26.25713,6.17815s-16.98991,35.52436 -16.98991,44.79158s-26.25713,29.34621 -30.89075,24.7126s7.72269,-23.16806 4.63362,-33.97982s-6.17815,-35.52436 -6.17815,-35.52436l23.16806,-6.17815z"/>
  <path id="svg_28" opacity="0.1" d="m788.544629,468.332687s29.34621,-12.35629 26.25713,6.17815s-16.98991,35.52436 -16.98991,44.79158s-26.25713,29.34621 -30.89075,24.7126s7.72269,-23.16806 4.63362,-33.97982s-6.17815,-35.52436 -6.17815,-35.52436l23.16806,-6.17815z"/>
  <path id="svg_29" fill="#55536e" d="m779.277399,482.233527s29.34621,-12.3563 26.25714,6.17815s-16.98991,35.52436 -16.98991,44.79158s-26.25714,29.34621 -30.89075,24.7126s7.72269,-23.16806 4.63361,-33.97982s-6.17815,-35.52436 -6.17815,-35.52436l23.16806,-6.17815z"/>
  <path id="svg_30" fill="#3f3d56" d="m711.317759,369.482307s91.1277,86.49409 88.03863,94.21677s-23.16806,24.7126 -23.16806,24.7126s-69.50418,-91.1277 -64.87057,-118.92937z"/>
  <path id="svg_31" opacity="0.1" d="m711.317759,369.482307s91.1277,86.49409 88.03863,94.21677s-23.16806,24.7126 -23.16806,24.7126s-69.50418,-91.1277 -64.87057,-118.92937z"/>
  <path id="svg_32" fill="#3f3d56" d="m689.694239,213.484037s23.16806,23.16806 16.98991,67.95964s4.63361,88.03863 16.98991,101.93946s63.326,94.21678 63.326,94.21678s-21.62352,35.52435 -38.61343,16.98991s-67.95964,-94.21678 -67.95964,-94.21678s-46.33609,-91.1277 -50.9697,-115.8403s-6.17815,-63.326 6.17815,-71.04872s54.0588,0.00001 54.0588,0.00001z"/>
  <path id="svg_33" opacity="0.1" d="m727.998769,60.713857c18.04019,3.73778 16.24853,4.46371 27.33831,8.356c0.06178,-0.18535 0.12356,-0.3398 0.18534,-0.49426c1.699,-4.04668 2.76472,1.26653 5.22054,1.26653c6.17814,0 -21.62353,-26.25714 -21.62353,-26.25714s-1.05028,1.94612 -2.85739,4.86529c-0.54059,0.8495 -1.12751,1.77622 -1.77622,2.74928c-0.54059,0.8186 -1.12751,1.68355 -1.74533,2.57938l-4.74172,6.93492z"/>
  <circle id="svg_34" fill="#a0616a" r="29.34621" cy="52.85217" cx="760.74295"/>
  <path id="svg_35" fill="#56af84" d="m706.684149,74.475687s44.79158,4.63361 54.05881,24.71259s-57.14788,117.38484 -61.7815,118.92937s-69.50417,9.26723 -69.50417,9.26723s3.08907,-98.85039 63.326,-135.91928c0.00003,0 13.90086,-6.17815 13.90086,-16.98991z"/>
  <path id="svg_36" fill="#56af84" d="m731.396749,85.287447s33.97982,13.90083 46.33612,27.80167s64.87056,38.61343 64.87056,38.61343s-4.63361,20.079 -9.26722,20.079s-111.20669,-44.7916 -122.01845,-47.88067s-4.63361,-40.15797 20.07899,-38.61343z"/>
  <path id="svg_37" fill="#3f3d56" d="m758.426149,56.713507s7.72269,-7.72269 -7.72269,-13.90084c0,0 15.44538,-6.17815 18.53445,-15.44537s13.90084,-24.7126 23.16806,0s26.25713,57.14788 -29.34621,57.14788c0,0 -13.90083,3.08907 -13.90083,-9.26722a23.16806,23.16806 0 0 1 9.26722,-18.53445z"/>
 </g>
</svg>